# xmcd CD database file
#
# Track frame offsets:
#	150
#	10217
#	22016
#	33542
#	44449
#	54320
#	66082
#	76329
#	87001
#	99495
#	110500
#	121815
#	132048
#	143606
#	154674
#	165231
#	173905
#	186650
#	200945
#	212027
#
# Disc length: 3007 seconds
#
# Revision: 0
# Processed by: cddbd v1.5.2PL0 Copyright (c) Steve Scherf et al.
# Submitted via: CDex 1.70beta2
#
DISCID=0e0bbd14
DTITLE=Patsy Cline - The Essential Collection (2)
DYEAR=2007
DGENRE=Country
TTITLE0=Three Cigarettes (In An Ashtray)
TTITLE1=Your Cheatin' Heart
TTITLE2=I've Loved And Lost Again
TTITLE3=I Can't Forget You
TTITLE4=Turn The Cards Slowly
TTITLE5=Today Tomorrow And Forever
TTITLE6=Pick Me Up On Your Way Down
TTITLE7=I Can See An Angel
TTITLE8=Fingerprints
TTITLE9=Don't Ever Leave Me Again
TTITLE10=Dear God
TTITLE11=Secrets
TTITLE12=Never No More
TTITLE13=A Stranger In My Arms
TTITLE14=Got A Lot Of Rhythm In My Soul
TTITLE15=Ain't No Wheels On This Ship
TTITLE16=Yes, I Understand
TTITLE17=Then You'll Know
TTITLE18=Stop Look And Listen
TTITLE19=A Church A Courtroom And Then Goodbye
EXTD=YEAR: 2007
EXTT0=
EXTT1=
EXTT2=
EXTT3=
EXTT4=
EXTT5=
EXTT6=
EXTT7=
EXTT8=
EXTT9=
EXTT10=
EXTT11=
EXTT12=
EXTT13=
EXTT14=
EXTT15=
EXTT16=
EXTT17=
EXTT18=
EXTT19=
PLAYORDER=
